<svg width="27" height="17" viewBox="0 0 27 17" fill="none" xmlns="http://www.w3.org/2000/svg">
<path d="M25.3538 16.5015H20.8866C20.6877 16.5069 20.4899 16.4692 20.3048 16.3907C20.1196 16.3121 19.9508 16.1943 19.8084 16.0443C19.6661 15.8942 19.5529 15.7148 19.4756 15.5168C19.3984 15.3187 19.3586 15.1059 19.3586 14.891C19.3586 14.676 19.3984 14.4633 19.4756 14.2652C19.5529 14.0671 19.6661 13.8878 19.8084 13.7377C19.9508 13.5876 20.1196 13.4698 20.3048 13.3913C20.4899 13.3127 20.6877 13.2751 20.8866 13.2804H21.5618L14.8222 6.51828L9.85556 10.543C9.57932 10.7668 9.23974 10.8801 8.8948 10.8636C8.54985 10.847 8.22093 10.7015 7.96418 10.452L0.511506 3.20321C0.217154 2.91747 0.0398993 2.51707 0.0187386 2.09011C-0.00242214 1.66315 0.134243 1.24458 0.398669 0.926502C0.663095 0.608425 1.03362 0.416899 1.42874 0.394033C1.82385 0.371167 2.21119 0.518855 2.50554 0.804593L9.04722 7.16693L14.0305 3.12924C14.3097 2.90258 14.6538 2.7892 15.0026 2.80893C15.3514 2.82866 15.6827 2.98025 15.9385 3.23718L23.8675 11.1936V10.0552C23.8772 9.63504 24.0385 9.23558 24.3169 8.94209C24.5954 8.64859 24.9689 8.48431 25.3579 8.48431C25.7469 8.48431 26.1205 8.64859 26.3989 8.94209C26.6774 9.23558 26.8387 9.63504 26.8484 10.0552V14.8875C26.8489 15.0997 26.8105 15.3099 26.7356 15.506C26.6606 15.7021 26.5505 15.8803 26.4116 16.0303C26.2727 16.1803 26.1078 16.2992 25.9262 16.38C25.7447 16.4609 25.5501 16.5022 25.3538 16.5015Z" fill="#EC6A5E"/>
</svg>
