<svg width="25" height="17" viewBox="0 0 25 17" fill="none" xmlns="http://www.w3.org/2000/svg">
<path d="M23.0411 16.8946H19.0312C18.8527 16.9 18.6751 16.8623 18.5089 16.7837C18.3427 16.7052 18.1912 16.5874 18.0634 16.4372C17.9356 16.2871 17.834 16.1077 17.7646 15.9096C17.6953 15.7115 17.6596 15.4986 17.6596 15.2836C17.6596 15.0686 17.6953 14.8558 17.7646 14.6576C17.834 14.4595 17.9356 14.2801 18.0634 14.13C18.1912 13.9798 18.3427 13.862 18.5089 13.7835C18.6751 13.7049 18.8527 13.6672 19.0312 13.6726H19.6372L13.5875 6.90849L9.12924 10.9343C8.88128 11.1583 8.57646 11.2716 8.26682 11.255C7.95718 11.2384 7.66193 11.0929 7.43146 10.8434L0.741611 3.59245C0.477388 3.30663 0.318276 2.90611 0.299282 2.47903C0.280287 2.05194 0.402964 1.63325 0.640324 1.31508C0.877684 0.996916 1.21028 0.805334 1.56496 0.782461C1.91963 0.759588 2.26732 0.907319 2.53155 1.19314L8.40364 7.55732L12.8768 3.51847C13.1275 3.29173 13.4364 3.17832 13.7495 3.19806C14.0625 3.2178 14.3599 3.36943 14.5896 3.62644L21.707 11.5852V10.4465C21.7157 10.0262 21.8604 9.62658 22.1104 9.333C22.3603 9.03941 22.6957 8.87509 23.0448 8.87509C23.394 8.87509 23.7294 9.03941 23.9793 9.333C24.2293 9.62658 24.374 10.0262 24.3827 10.4465V15.2801C24.3832 15.4924 24.3488 15.7026 24.2815 15.8988C24.2142 16.095 24.1154 16.2732 23.9907 16.4233C23.866 16.5733 23.718 16.6922 23.555 16.7731C23.392 16.854 23.2174 16.8953 23.0411 16.8946Z" fill="#ED6A5E"/>
</svg>
