<svg width="25" height="17" viewBox="0 0 25 17" fill="none" xmlns="http://www.w3.org/2000/svg">
<path d="M23.2604 16.8946H19.2504C19.0719 16.9 18.8943 16.8623 18.7281 16.7837C18.5619 16.7052 18.4104 16.5874 18.2826 16.4372C18.1548 16.2871 18.0532 16.1077 17.9839 15.9096C17.9145 15.7115 17.8788 15.4986 17.8788 15.2836C17.8788 15.0686 17.9145 14.8558 17.9839 14.6576C18.0532 14.4595 18.1548 14.2801 18.2826 14.13C18.4104 13.9798 18.5619 13.862 18.7281 13.7835C18.8943 13.7049 19.0719 13.6672 19.2504 13.6726H19.8565L13.8067 6.90849L9.34848 10.9343C9.10052 11.1583 8.7957 11.2716 8.48606 11.255C8.17642 11.2384 7.88117 11.0929 7.6507 10.8434L0.96085 3.59245C0.696626 3.30663 0.537515 2.90611 0.51852 2.47903C0.499525 2.05194 0.622202 1.63325 0.859562 1.31508C1.09692 0.996916 1.42952 0.805334 1.7842 0.782461C2.13887 0.759588 2.48656 0.907319 2.75079 1.19314L8.62288 7.55732L13.0961 3.51847C13.3467 3.29173 13.6556 3.17832 13.9687 3.19806C14.2818 3.2178 14.5791 3.36943 14.8088 3.62644L21.9262 11.5852V10.4465C21.9349 10.0262 22.0797 9.62658 22.3296 9.333C22.5796 9.03941 22.9149 8.87509 23.2641 8.87509C23.6133 8.87509 23.9486 9.03941 24.1986 9.333C24.4485 9.62658 24.5933 10.0262 24.602 10.4465V15.2801C24.6024 15.4924 24.568 15.7026 24.5007 15.8988C24.4334 16.095 24.3346 16.2732 24.2099 16.4233C24.0853 16.5733 23.9372 16.6922 23.7742 16.7731C23.6113 16.854 23.4366 16.8953 23.2604 16.8946Z" fill="#ED6A5E"/>
</svg>
