<?xml version="1.0" standalone="no"?>
<!DOCTYPE svg PUBLIC "-//W3C//DTD SVG 20010904//EN"
 "http://www.w3.org/TR/2001/REC-SVG-20010904/DTD/svg10.dtd">
<svg version="1.0" xmlns="http://www.w3.org/2000/svg"
 width="512.000000pt" height="512.000000pt" viewBox="0 0 512.000000 512.000000"
 preserveAspectRatio="xMidYMid meet">

<g transform="translate(0.000000,512.000000) scale(0.100000,-0.100000)"
fill="#000000" stroke="none">
<path d="M2390 4164 c-126 -15 -260 -40 -357 -65 -627 -161 -1312 -645 -1885
-1332 -64 -77 -125 -155 -135 -174 -17 -32 -17 -34 0 -66 10 -19 71 -97 135
-174 562 -673 1224 -1148 1847 -1323 202 -56 338 -74 565 -74 227 0 363 18
565 74 622 175 1285 650 1847 1323 64 77 125 155 135 174 17 32 17 34 0 66
-10 19 -71 97 -135 174 -499 598 -1090 1049 -1647 1257 -258 96 -465 136 -725
141 -96 2 -191 1 -210 -1z m413 -375 c54 -11 119 -27 145 -35 486 -163 822
-591 861 -1096 54 -692 -461 -1294 -1151 -1347 -479 -37 -933 199 -1180 614
-227 382 -227 888 0 1270 135 227 346 415 577 512 107 46 123 51 220 74 170
40 351 43 528 8z"/>
<path d="M2439 3680 c-286 -32 -549 -172 -735 -391 -404 -473 -347 -1181 127
-1585 474 -404 1186 -346 1589 131 267 316 338 755 186 1143 -116 294 -377
543 -676 645 -153 52 -341 74 -491 57z m241 -544 c301 -65 506 -356 463 -654
-56 -382 -452 -611 -805 -466 -245 100 -398 365 -361 622 50 340 373 569 703
498z"/>
</g>
</svg>
