<svg width="25" height="17" viewBox="0 0 25 17" fill="none" xmlns="http://www.w3.org/2000/svg">
<path d="M23.2042 0.330208H19.1943C18.8452 0.340679 18.5134 0.515013 18.2696 0.816001C18.0258 1.11699 17.8893 1.52077 17.8893 1.94123C17.8893 2.36168 18.0258 2.7655 18.2696 3.06649C18.5134 3.36747 18.8452 3.54181 19.1943 3.55228H19.8003L13.7506 10.3173L9.29233 6.29149C9.04437 6.06757 8.73955 5.95425 8.42991 5.97084C8.12027 5.98743 7.82501 6.13291 7.59455 6.38246L0.904697 13.6334C0.640474 13.9192 0.481362 14.3197 0.462367 14.7468C0.443373 15.1739 0.566049 15.5926 0.80341 15.9107C1.04077 16.2289 1.37337 16.4205 1.72804 16.4434C2.08272 16.4663 2.43041 16.3185 2.69463 16.0327L8.56672 9.66854L13.0399 13.7074C13.2906 13.9341 13.5995 14.0475 13.9126 14.0278C14.2256 14.0081 14.523 13.8564 14.7526 13.5994L21.87 5.64067V6.77935C21.8787 7.19968 22.0235 7.59928 22.2735 7.89287C22.5234 8.18645 22.8588 8.35077 23.2079 8.35077C23.5571 8.35077 23.8924 8.18645 24.1424 7.89287C24.3924 7.59928 24.5371 7.19968 24.5458 6.77935V1.94574C24.5464 1.7334 24.512 1.52302 24.4448 1.32672C24.3776 1.13041 24.2788 0.952054 24.1541 0.801905C24.0294 0.651757 23.8813 0.532801 23.7183 0.451847C23.5552 0.370892 23.3805 0.329548 23.2042 0.330208Z" fill="#61C454"/>
</svg>
