<svg width="28" height="17" viewBox="0 0 28 17" fill="none" xmlns="http://www.w3.org/2000/svg">
<path d="M25.9649 0.394844H21.4977C21.1088 0.405313 20.7391 0.579596 20.4675 0.880496C20.1959 1.1814 20.0439 1.58506 20.0439 2.0054C20.0439 2.42573 20.1959 2.82943 20.4675 3.13033C20.7391 3.43123 21.1088 3.60551 21.4977 3.61598H22.1728L15.4332 10.3791L10.4666 6.35439C10.1904 6.13054 9.85083 6.01725 9.50588 6.03384C9.16094 6.05042 8.83201 6.19586 8.57527 6.44534L1.12259 13.6942C0.828238 13.9799 0.650983 14.3803 0.629823 14.8073C0.608662 15.2342 0.745327 15.6528 1.00975 15.9709C1.27418 16.2889 1.6447 16.4805 2.03982 16.5034C2.43494 16.5262 2.82228 16.3785 3.11663 16.0928L9.6583 9.73047L14.6415 13.7681C14.9208 13.9948 15.2649 14.1082 15.6137 14.0885C15.9625 14.0687 16.2938 13.9171 16.5496 13.6602L24.4786 5.70377V6.84212C24.4883 7.26232 24.6495 7.66181 24.928 7.95531C25.2065 8.24881 25.58 8.41308 25.969 8.41308C26.358 8.41308 26.7316 8.24881 27.01 7.95531C27.2885 7.66181 27.4498 7.26232 27.4595 6.84212V2.00991C27.4601 1.79763 27.4218 1.58731 27.3469 1.39107C27.272 1.19482 27.162 1.01651 27.0231 0.866405C26.8842 0.7163 26.7191 0.597379 26.5375 0.516448C26.3559 0.435517 26.1613 0.394184 25.9649 0.394844Z" fill="#61C455"/>
</svg>
