<svg width="25" height="17" viewBox="0 0 25 17" fill="none" xmlns="http://www.w3.org/2000/svg">
<path d="M23.0411 0.23658H19.0312C18.6821 0.247051 18.3503 0.421386 18.1065 0.722373C17.8627 1.02336 17.7262 1.42714 17.7262 1.8476C17.7262 2.26806 17.8627 2.67187 18.1065 2.97286C18.3503 3.27385 18.6821 3.44818 19.0312 3.45865H19.6372L13.5875 10.2237L9.12924 6.19786C8.88128 5.97394 8.57646 5.86062 8.26682 5.87721C7.95719 5.8938 7.66193 6.03928 7.43146 6.28884L0.741611 13.5398C0.477388 13.8256 0.318276 14.2261 0.299282 14.6532C0.280287 15.0803 0.402964 15.499 0.640324 15.8171C0.877685 16.1353 1.21028 16.3269 1.56496 16.3498C1.91963 16.3726 2.26732 16.2249 2.53155 15.9391L8.40364 9.57492L12.8768 13.6137C13.1275 13.8405 13.4364 13.9539 13.7495 13.9342C14.0625 13.9144 14.3599 13.7628 14.5896 13.5058L21.707 5.54704V6.68573C21.7157 7.10605 21.8604 7.50566 22.1104 7.79924C22.3603 8.09282 22.6957 8.25715 23.0449 8.25715C23.394 8.25715 23.7294 8.09282 23.9793 7.79924C24.2293 7.50566 24.374 7.10605 24.3827 6.68573V1.85212C24.3833 1.63978 24.349 1.4294 24.2817 1.23309C24.2145 1.03679 24.1157 0.858426 23.991 0.708278C23.8663 0.558129 23.7182 0.439173 23.5552 0.358219C23.3922 0.277264 23.2175 0.23592 23.0411 0.23658Z" fill="#61C454"/>
</svg>
