<svg width="25" height="17" viewBox="0 0 25 17" fill="none" xmlns="http://www.w3.org/2000/svg">
<path d="M23.2604 0.23658H19.2504C18.9014 0.247051 18.5695 0.421386 18.3257 0.722373C18.0819 1.02336 17.9455 1.42714 17.9455 1.8476C17.9455 2.26806 18.0819 2.67187 18.3257 2.97286C18.5695 3.27385 18.9014 3.44818 19.2504 3.45865H19.8565L13.8067 10.2237L9.34848 6.19786C9.10052 5.97394 8.7957 5.86062 8.48606 5.87721C8.17642 5.8938 7.88117 6.03928 7.6507 6.28884L0.96085 13.5398C0.696626 13.8256 0.537515 14.2261 0.51852 14.6532C0.499525 15.0803 0.622202 15.499 0.859562 15.8171C1.09692 16.1353 1.42952 16.3269 1.7842 16.3498C2.13887 16.3726 2.48656 16.2249 2.75079 15.9391L8.62288 9.57492L13.0961 13.6137C13.3467 13.8405 13.6556 13.9539 13.9687 13.9342C14.2818 13.9144 14.5791 13.7628 14.8088 13.5058L21.9262 5.54704V6.68573C21.9349 7.10605 22.0797 7.50566 22.3296 7.79924C22.5796 8.09282 22.9149 8.25715 23.2641 8.25715C23.6133 8.25715 23.9486 8.09282 24.1986 7.79924C24.4485 7.50566 24.5933 7.10605 24.602 6.68573V1.85212C24.6025 1.63978 24.5682 1.4294 24.501 1.23309C24.4337 1.03679 24.3349 0.858426 24.2102 0.708278C24.0856 0.558129 23.9374 0.439173 23.7744 0.358219C23.6114 0.277264 23.4367 0.23592 23.2604 0.23658Z" fill="#61C454"/>
</svg>
