<svg width="25" height="17" viewBox="0 0 25 17" fill="none" xmlns="http://www.w3.org/2000/svg">
<path d="M22.9859 0.330208H18.976C18.627 0.340679 18.2951 0.515013 18.0513 0.816001C17.8075 1.11699 17.671 1.52077 17.671 1.94123C17.671 2.36168 17.8075 2.7655 18.0513 3.06649C18.2951 3.36747 18.627 3.54181 18.976 3.55228H19.5821L13.5323 10.3173L9.07407 6.29149C8.8261 6.06757 8.52128 5.95425 8.21165 5.97084C7.90201 5.98743 7.60675 6.13291 7.37629 6.38246L0.686436 13.6334C0.422212 13.9192 0.263101 14.3197 0.244106 14.7468C0.225111 15.1739 0.347788 15.5926 0.585148 15.9107C0.822509 16.2289 1.15511 16.4205 1.50978 16.4434C1.86446 16.4663 2.21215 16.3185 2.47637 16.0327L8.34846 9.66854L12.8216 13.7074C13.0723 13.9341 13.3812 14.0475 13.6943 14.0278C14.0074 14.0081 14.3047 13.8564 14.5344 13.5994L21.6518 5.64067V6.77935C21.6605 7.19968 21.8053 7.59928 22.0552 7.89287C22.3052 8.18645 22.6405 8.35077 22.9897 8.35077C23.3388 8.35077 23.6742 8.18645 23.9241 7.89287C24.1741 7.59928 24.3189 7.19968 24.3276 6.77935V1.94574C24.3281 1.7334 24.2938 1.52302 24.2265 1.32672C24.1593 1.13041 24.0605 0.952054 23.9358 0.801905C23.8111 0.651757 23.663 0.532801 23.5 0.451847C23.337 0.370892 23.1623 0.329548 22.9859 0.330208Z" fill="#61C454"/>
</svg>
