<svg width="27" height="20" viewBox="0 0 27 20" fill="none" xmlns="http://www.w3.org/2000/svg">
<path fill-rule="evenodd" clip-rule="evenodd" d="M23.3379 10.7306C23.4601 10.1235 23.4601 9.50759 23.3379 8.90046L26.1378 7.34509C26.2619 7.2736 26.3458 7.17436 26.3748 7.06463C26.4039 6.95489 26.3763 6.84159 26.2969 6.74443L23.6485 3.4917C23.5723 3.39623 23.4479 3.32337 23.299 3.28693C23.1501 3.25049 22.9871 3.253 22.8407 3.29398L19.5477 4.23662C18.8633 3.86272 18.111 3.5522 17.31 3.31294L16.8103 0.824678C16.7835 0.715535 16.7022 0.616316 16.5805 0.544195C16.4588 0.472074 16.3044 0.431607 16.144 0.42981H10.8573C10.698 0.431794 10.5449 0.472569 10.425 0.544932C10.3051 0.617295 10.226 0.71658 10.2019 0.825257L9.70222 3.31352C8.89956 3.55064 8.14686 3.86133 7.46444 4.2372L4.17145 3.29454C4.02489 3.2547 3.86243 3.25278 3.71397 3.28912C3.56551 3.32546 3.44108 3.39762 3.36364 3.49228L0.71529 6.74501C0.636194 6.84222 0.608778 6.95546 0.637823 7.06513C0.666868 7.17481 0.750533 7.27403 0.87434 7.34565L3.66929 8.89759C3.54524 9.50463 3.54524 10.1207 3.66929 10.7277L0.867681 12.2848C0.743193 12.3564 0.659068 12.4558 0.629995 12.5658C0.600922 12.6758 0.628766 12.7893 0.708631 12.8866L3.35698 16.1382C3.43338 16.2336 3.55771 16.3064 3.70655 16.3428C3.85538 16.3792 4.01839 16.3768 4.16479 16.3359L7.45778 15.3933C8.14227 15.7674 8.89455 16.0783 9.69556 16.3181L10.2036 18.8064C10.2279 18.915 10.3069 19.0142 10.4268 19.0866C10.5467 19.1589 10.6998 19.1997 10.859 19.2018H16.1565C16.3159 19.1999 16.4691 19.1592 16.589 19.0868C16.709 19.0144 16.788 18.9151 16.812 18.8064L17.3116 16.3192C18.1141 16.0813 18.8667 15.7703 19.5494 15.3944L22.8424 16.3371C22.9889 16.3769 23.1514 16.3788 23.2999 16.3425C23.4483 16.3062 23.5728 16.234 23.6502 16.1393L26.2986 12.8878C26.3778 12.7904 26.4052 12.6769 26.3762 12.5671C26.3471 12.4572 26.2635 12.3578 26.1395 12.286L23.3379 10.7306ZM13.4999 13.1022C12.5529 13.1198 11.6198 12.9421 10.82 12.5917C10.0202 12.2414 9.38988 11.7344 9.00975 11.1356C8.62963 10.5367 8.51692 9.87319 8.68606 9.22989C8.8552 8.58659 9.29852 7.99274 9.95928 7.52424C10.62 7.05574 11.4682 6.7339 12.3954 6.59987C13.3226 6.46585 14.2866 6.52572 15.1642 6.77185C16.0418 7.01797 16.7932 7.43915 17.3221 7.98154C17.8511 8.52392 18.1336 9.16287 18.1336 9.81667C18.1419 10.2426 18.0284 10.6655 17.7997 11.0611C17.5709 11.4568 17.2315 11.8175 16.8007 12.1225C16.3699 12.4275 15.8561 12.671 15.2889 12.8389C14.7216 13.0068 14.112 13.0958 13.4948 13.101L13.4999 13.1022Z" fill="white"/>
</svg>
